<?xml version="1.0" encoding="UTF-8" standalone="no"?>
<!DOCTYPE svg PUBLIC "-//W3C//DTD SVG 1.1//EN" "http://www.w3.org/Graphics/SVG/1.1/DTD/svg11.dtd">
<svg xmlns="http://www.w3.org/2000/svg" version="1.1" viewBox="0.00 0.00 180.00 45.00">
<g stroke-width="2.00" fill="none" stroke-linecap="butt">
<path stroke="#221d7f" vector-effect="non-scaling-stroke" d="
  M 23.31 19.27
  A 12.09 12.08 -56.9 0 0 25.34 28.92
  A 12.10 12.08 72.9 0 0 34.73 33.90
  A 12.08 12.08 0.0 0 0 47.02 23.93"
/>
<path stroke="#38387c" vector-effect="non-scaling-stroke" d="
  M 47.02 23.93
  A 12.09 12.09 0.0 0 0 37.51 9.98
  A 12.10 12.09 -78.2 0 0 23.31 19.27"
/>
<path stroke="#5a55fb" vector-effect="non-scaling-stroke" d="
  M 47.02 23.93
  L 45.45 23.08"
/>
<path stroke="#38387c" vector-effect="non-scaling-stroke" d="
  M 45.45 23.08
  C 46.17 9.72 27.95 7.15 24.85 20.05"
/>
<path stroke="#5a55fb" vector-effect="non-scaling-stroke" d="
  M 24.85 20.05
  Q 23.89 20.36 23.31 19.27"
/>
<path stroke="#221d7f" vector-effect="non-scaling-stroke" d="
  M 45.45 23.08
  Q 44.34 28.69 40.16 30.93
  Q 36.31 32.99 31.67 31.54
  Q 24.53 29.29 24.85 20.05"
/>
<path stroke="#808080" vector-effect="non-scaling-stroke" d="
  M 72.81 24.13
  Q 73.08 22.66 73.50 21.25
  Q 73.79 20.24 72.74 20.25
  L 72.31 20.25
  A 1.60 1.60 0.0 0 0 70.80 21.37
  C 70.12 23.51 69.45 27.50 70.37 29.78
  A 1.32 1.32 0.0 0 0 72.89 29.57
  Q 73.48 26.86 74.89 24.58
  Q 76.17 22.51 75.88 24.92
  Q 75.75 26.05 75.54 27.18
  C 74.76 31.40 78.94 31.33 80.96 29.26
  Q 81.33 28.89 81.67 29.29
  Q 83.96 32.01 86.58 29.38
  Q 87.09 28.87 87.44 29.49
  Q 88.30 30.99 89.94 30.54
  Q 90.58 30.36 90.29 30.96
  C 89.24 33.21 88.18 36.78 89.07 39.26
  C 89.87 41.46 92.65 40.71 93.50 38.98
  Q 95.02 35.92 95.17 32.23
  A 2.25 2.25 0.0 0 1 98.25 30.22
  Q 101.46 31.49 103.83 28.56
  Q 104.32 27.96 104.73 28.63
  C 106.87 32.14 111.18 30.67 112.26 27.22
  Q 112.43 26.65 112.99 26.48
  Q 113.50 26.32 114.00 26.43
  Q 114.43 26.52 114.49 26.95
  C 115.23 32.04 121.24 31.58 122.85 27.22
  Q 123.25 26.16 124.38 26.28
  Q 124.97 26.34 125.04 26.92
  C 125.67 31.81 132.30 31.73 133.39 27.19
  Q 133.52 26.64 134.06 26.53
  L 135.26 26.27
  Q 135.99 26.11 135.98 26.86
  Q 135.97 28.03 136.18 29.23
  Q 136.48 30.95 138.13 30.46
  A 1.17 1.16 87.5 0 0 138.93 29.58
  Q 139.56 26.27 141.81 23.34
  A 0.82 0.82 0.0 0 1 143.21 23.49
  Q 143.52 24.17 142.64 25.05
  A 1.80 1.69 -77.8 0 1 142.12 25.41
  Q 139.77 26.48 140.91 28.61
  C 143.00 32.52 148.09 30.25 149.23 26.82
  Q 149.42 26.25 148.98 25.81
  Q 148.55 25.37 148.11 25.81
  L 146.22 27.69
  A 1.16 1.14 -74.8 0 1 145.67 28.01
  Q 144.56 28.30 143.91 27.79
  Q 143.07 27.14 143.95 26.55
  C 145.78 25.33 147.30 22.08 144.94 20.60
  C 142.47 19.05 140.01 22.38 139.03 24.33
  Q 138.91 24.59 138.67 24.44
  L 138.45 24.30
  Q 138.30 24.21 138.39 24.06
  C 140.42 20.68 146.20 15.19 143.72 10.76
  A 2.08 2.07 -28.6 0 0 140.92 9.94
  C 137.33 11.87 136.20 19.62 136.04 23.38
  Q 136.02 23.93 135.47 23.99
  L 134.34 24.10
  Q 133.83 24.15 133.70 23.66
  C 132.53 19.02 127.27 19.12 125.59 23.08
  C 125.26 23.85 124.38 24.34 123.56 24.09
  Q 123.14 23.97 123.03 23.54
  C 121.76 18.64 116.48 19.43 114.75 23.45
  Q 114.53 23.96 113.97 24.04
  L 113.13 24.16
  Q 112.57 24.24 112.49 23.67
  Q 112.16 21.05 109.86 20.37
  Q 109.17 20.17 109.62 19.60
  C 111.18 17.64 114.27 10.45 109.99 9.76
  C 105.12 8.98 103.78 21.78 103.83 25.02
  Q 103.83 25.52 103.56 25.93
  Q 102.67 27.28 101.40 27.89
  Q 99.45 28.82 100.43 26.90
  Q 101.38 25.06 101.17 23.04
  C 100.89 20.26 98.12 19.17 96.03 21.27
  Q 95.65 21.65 95.47 21.14
  Q 95.42 21.01 95.44 20.88
  Q 95.54 20.26 94.92 20.12
  Q 93.89 19.91 93.15 20.59
  Q 92.74 20.97 92.75 21.52
  L 92.77 24.36
  Q 92.78 25.59 91.91 26.46
  L 90.45 27.92
  A 0.77 0.77 0.0 0 1 89.14 27.25
  L 90.02 21.96
  Q 90.17 21.04 89.24 21.04
  Q 88.39 21.03 87.64 20.47
  Q 87.12 20.09 86.49 20.19
  C 83.04 20.74 81.97 23.44 80.89 26.31
  Q 80.32 27.83 78.82 28.00
  A 0.61 0.61 0.0 0 1 78.15 27.29
  L 79.10 21.78
  A 1.31 1.30 9.4 0 0 78.02 20.28
  C 75.78 19.93 73.98 22.48 73.08 24.22
  Q 72.64 25.07 72.81 24.13"
/>
<path stroke="#808080" vector-effect="non-scaling-stroke" d="
  M 56.70 26.50
  L 56.75 25.00
  Q 56.79 23.73 55.53 23.68
  Q 55.02 23.66 54.54 23.89
  A 1.34 1.32 -9.9 0 0 53.81 24.91
  Q 53.18 29.47 57.69 30.43
  C 61.56 31.26 67.20 30.41 67.50 25.46
  C 67.86 19.60 57.06 20.61 58.51 16.12
  C 59.41 13.36 66.44 13.23 65.24 17.22
  A 1.21 1.20 -75.7 0 0 66.14 18.74
  L 66.46 18.80
  A 1.34 1.34 0.0 0 0 68.02 17.90
  C 69.91 12.08 63.26 11.02 59.24 12.20
  C 56.02 13.15 54.01 16.81 56.11 19.72
  C 57.70 21.92 60.91 22.61 63.25 23.84
  A 2.10 2.10 0.0 0 1 64.06 26.81
  C 62.82 28.80 59.04 28.43 57.36 27.60
  Q 56.68 27.27 56.70 26.50"
/>
<path stroke="#808080" vector-effect="non-scaling-stroke" d="
  M 106.93 21.01
  Q 109.72 17.35 109.96 12.71
  Q 109.99 12.12 109.41 12.08
  Q 108.86 12.03 108.67 12.55
  Q 107.13 16.64 106.85 21.11
  Q 106.84 21.22 106.88 21.12
  Q 106.90 21.06 106.93 21.01"
/>
<path stroke="#808080" vector-effect="non-scaling-stroke" d="
  M 139.23 18.81
  Q 139.00 20.42 139.94 19.09
  Q 141.86 16.33 142.15 12.84
  A 0.65 0.65 0.0 0 0 141.39 12.14
  Q 140.94 12.22 140.78 12.67
  Q 139.65 15.77 139.23 18.81"
/>
<path stroke="#808080" vector-effect="non-scaling-stroke" d="
  M 87.20 22.68
  A 0.38 0.37 -9.9 0 0 86.65 22.30
  Q 83.83 23.79 83.96 27.40
  Q 83.97 27.80 84.26 28.06
  Q 84.72 28.48 85.31 28.21
  Q 85.96 27.91 86.16 27.24
  Q 86.85 25.04 87.20 22.68"
/>
<path stroke="#808080" vector-effect="non-scaling-stroke" d="
  M 98.30 23.21
  A 0.79 0.78 79.5 0 0 97.30 22.52
  C 95.01 23.19 95.36 26.23 95.57 28.03
  Q 95.63 28.60 96.10 28.27
  Q 98.60 26.52 98.30 23.21"
/>
<path stroke="#808080" vector-effect="non-scaling-stroke" d="
  M 109.78 25.80
  C 108.86 24.67 108.87 24.23 108.59 22.85
  Q 108.43 22.07 107.86 22.63
  Q 105.97 24.52 106.96 27.34
  A 1.33 1.32 62.9 0 0 108.96 27.99
  Q 109.60 27.55 109.92 26.83
  Q 110.16 26.28 109.78 25.80"
/>
<path stroke="#808080" vector-effect="non-scaling-stroke" d="
  M 120.32 25.81
  C 119.61 24.75 119.24 24.56 119.21 23.15
  Q 119.18 22.16 118.40 22.77
  Q 116.58 24.17 117.39 27.18
  A 1.40 1.39 65.9 0 0 119.50 27.99
  Q 120.17 27.56 120.45 26.73
  Q 120.61 26.24 120.32 25.81"
/>
<path stroke="#808080" vector-effect="non-scaling-stroke" d="
  M 130.86 25.70
  C 130.27 24.77 130.12 24.79 129.87 23.61
  Q 129.43 21.54 128.39 23.39
  Q 127.22 25.49 128.10 27.33
  Q 128.84 28.87 130.42 27.80
  A 1.54 1.54 0.0 0 0 130.86 25.70"
/>
<path stroke="#808080" vector-effect="non-scaling-stroke" d="
  M 92.10 30.95
  C 91.20 32.75 90.79 35.75 90.69 37.63
  A 0.53 0.53 0.0 0 0 91.11 38.17
  Q 91.69 38.30 91.80 37.85
  Q 92.56 34.79 92.66 31.09
  Q 92.69 29.77 92.10 30.95"
/>
<path stroke="#38387c" vector-effect="non-scaling-stroke" d="
  M 41.76 16.46
  A 1.22 1.22 0.0 0 0 40.54 15.24
  A 1.22 1.22 0.0 0 0 39.32 16.46
  A 1.22 1.22 0.0 0 0 40.54 17.68
  A 1.22 1.22 0.0 0 0 41.76 16.46"
/>
<path stroke="#38387c" vector-effect="non-scaling-stroke" d="
  M 40.61 21.85
  A 5.49 5.49 0.0 0 0 35.12 16.36
  A 5.49 5.49 0.0 0 0 29.63 21.85
  A 5.49 5.49 0.0 0 0 35.12 27.34
  A 5.49 5.49 0.0 0 0 40.61 21.85"
/>
<path stroke="#38387c" vector-effect="non-scaling-stroke" d="
  M 38.87 21.90
  A 3.75 3.75 0.0 0 0 35.12 18.15
  A 3.75 3.75 0.0 0 0 31.37 21.90
  A 3.75 3.75 0.0 0 0 35.12 25.65
  A 3.75 3.75 0.0 0 0 38.87 21.90"
/>
</g>
<path fill="#000000" d="
  M 0.00 0.00
  L 180.00 0.00
  L 180.00 45.00
  L 0.00 45.00
  L 0.00 0.00
  Z
  M 23.31 19.27
  A 12.09 12.08 -56.9 0 0 25.34 28.92
  A 12.10 12.08 72.9 0 0 34.73 33.90
  A 12.08 12.08 0.0 0 0 47.02 23.93
  A 12.09 12.09 0.0 0 0 37.51 9.98
  A 12.10 12.09 -78.2 0 0 23.31 19.27
  Z
  M 72.81 24.13
  Q 73.08 22.66 73.50 21.25
  Q 73.79 20.24 72.74 20.25
  L 72.31 20.25
  A 1.60 1.60 0.0 0 0 70.80 21.37
  C 70.12 23.51 69.45 27.50 70.37 29.78
  A 1.32 1.32 0.0 0 0 72.89 29.57
  Q 73.48 26.86 74.89 24.58
  Q 76.17 22.51 75.88 24.92
  Q 75.75 26.05 75.54 27.18
  C 74.76 31.40 78.94 31.33 80.96 29.26
  Q 81.33 28.89 81.67 29.29
  Q 83.96 32.01 86.58 29.38
  Q 87.09 28.87 87.44 29.49
  Q 88.30 30.99 89.94 30.54
  Q 90.58 30.36 90.29 30.96
  C 89.24 33.21 88.18 36.78 89.07 39.26
  C 89.87 41.46 92.65 40.71 93.50 38.98
  Q 95.02 35.92 95.17 32.23
  A 2.25 2.25 0.0 0 1 98.25 30.22
  Q 101.46 31.49 103.83 28.56
  Q 104.32 27.96 104.73 28.63
  C 106.87 32.14 111.18 30.67 112.26 27.22
  Q 112.43 26.65 112.99 26.48
  Q 113.50 26.32 114.00 26.43
  Q 114.43 26.52 114.49 26.95
  C 115.23 32.04 121.24 31.58 122.85 27.22
  Q 123.25 26.16 124.38 26.28
  Q 124.97 26.34 125.04 26.92
  C 125.67 31.81 132.30 31.73 133.39 27.19
  Q 133.52 26.64 134.06 26.53
  L 135.26 26.27
  Q 135.99 26.11 135.98 26.86
  Q 135.97 28.03 136.18 29.23
  Q 136.48 30.95 138.13 30.46
  A 1.17 1.16 87.5 0 0 138.93 29.58
  Q 139.56 26.27 141.81 23.34
  A 0.82 0.82 0.0 0 1 143.21 23.49
  Q 143.52 24.17 142.64 25.05
  A 1.80 1.69 -77.8 0 1 142.12 25.41
  Q 139.77 26.48 140.91 28.61
  C 143.00 32.52 148.09 30.25 149.23 26.82
  Q 149.42 26.25 148.98 25.81
  Q 148.55 25.37 148.11 25.81
  L 146.22 27.69
  A 1.16 1.14 -74.8 0 1 145.67 28.01
  Q 144.56 28.30 143.91 27.79
  Q 143.07 27.14 143.95 26.55
  C 145.78 25.33 147.30 22.08 144.94 20.60
  C 142.47 19.05 140.01 22.38 139.03 24.33
  Q 138.91 24.59 138.67 24.44
  L 138.45 24.30
  Q 138.30 24.21 138.39 24.06
  C 140.42 20.68 146.20 15.19 143.72 10.76
  A 2.08 2.07 -28.6 0 0 140.92 9.94
  C 137.33 11.87 136.20 19.62 136.04 23.38
  Q 136.02 23.93 135.47 23.99
  L 134.34 24.10
  Q 133.83 24.15 133.70 23.66
  C 132.53 19.02 127.27 19.12 125.59 23.08
  C 125.26 23.85 124.38 24.34 123.56 24.09
  Q 123.14 23.97 123.03 23.54
  C 121.76 18.64 116.48 19.43 114.75 23.45
  Q 114.53 23.96 113.97 24.04
  L 113.13 24.16
  Q 112.57 24.24 112.49 23.67
  Q 112.16 21.05 109.86 20.37
  Q 109.17 20.17 109.62 19.60
  C 111.18 17.64 114.27 10.45 109.99 9.76
  C 105.12 8.98 103.78 21.78 103.83 25.02
  Q 103.83 25.52 103.56 25.93
  Q 102.67 27.28 101.40 27.89
  Q 99.45 28.82 100.43 26.90
  Q 101.38 25.06 101.17 23.04
  C 100.89 20.26 98.12 19.17 96.03 21.27
  Q 95.65 21.65 95.47 21.14
  Q 95.42 21.01 95.44 20.88
  Q 95.54 20.26 94.92 20.12
  Q 93.89 19.91 93.15 20.59
  Q 92.74 20.97 92.75 21.52
  L 92.77 24.36
  Q 92.78 25.59 91.91 26.46
  L 90.45 27.92
  A 0.77 0.77 0.0 0 1 89.14 27.25
  L 90.02 21.96
  Q 90.17 21.04 89.24 21.04
  Q 88.39 21.03 87.64 20.47
  Q 87.12 20.09 86.49 20.19
  C 83.04 20.74 81.97 23.44 80.89 26.31
  Q 80.32 27.83 78.82 28.00
  A 0.61 0.61 0.0 0 1 78.15 27.29
  L 79.10 21.78
  A 1.31 1.30 9.4 0 0 78.02 20.28
  C 75.78 19.93 73.98 22.48 73.08 24.22
  Q 72.64 25.07 72.81 24.13
  Z
  M 56.70 26.50
  L 56.75 25.00
  Q 56.79 23.73 55.53 23.68
  Q 55.02 23.66 54.54 23.89
  A 1.34 1.32 -9.9 0 0 53.81 24.91
  Q 53.18 29.47 57.69 30.43
  C 61.56 31.26 67.20 30.41 67.50 25.46
  C 67.86 19.60 57.06 20.61 58.51 16.12
  C 59.41 13.36 66.44 13.23 65.24 17.22
  A 1.21 1.20 -75.7 0 0 66.14 18.74
  L 66.46 18.80
  A 1.34 1.34 0.0 0 0 68.02 17.90
  C 69.91 12.08 63.26 11.02 59.24 12.20
  C 56.02 13.15 54.01 16.81 56.11 19.72
  C 57.70 21.92 60.91 22.61 63.25 23.84
  A 2.10 2.10 0.0 0 1 64.06 26.81
  C 62.82 28.80 59.04 28.43 57.36 27.60
  Q 56.68 27.27 56.70 26.50
  Z"
/>
<path fill="#7070f8" d="
  M 47.02 23.93
  L 45.45 23.08
  C 46.17 9.72 27.95 7.15 24.85 20.05
  Q 23.89 20.36 23.31 19.27
  A 12.10 12.09 -78.2 0 1 37.51 9.98
  A 12.09 12.09 0.0 0 1 47.02 23.93
  Z"
/>
<path fill="#ffffff" d="
  M 73.08 24.22
  C 73.98 22.48 75.78 19.93 78.02 20.28
  A 1.31 1.30 9.4 0 1 79.10 21.78
  L 78.15 27.29
  A 0.61 0.61 0.0 0 0 78.82 28.00
  Q 80.32 27.83 80.89 26.31
  C 81.97 23.44 83.04 20.74 86.49 20.19
  Q 87.12 20.09 87.64 20.47
  Q 88.39 21.03 89.24 21.04
  Q 90.17 21.04 90.02 21.96
  L 89.14 27.25
  A 0.77 0.77 0.0 0 0 90.45 27.92
  L 91.91 26.46
  Q 92.78 25.59 92.77 24.36
  L 92.75 21.52
  Q 92.74 20.97 93.15 20.59
  Q 93.89 19.91 94.92 20.12
  Q 95.54 20.26 95.44 20.88
  Q 95.42 21.01 95.47 21.14
  Q 95.65 21.65 96.03 21.27
  C 98.12 19.17 100.89 20.26 101.17 23.04
  Q 101.38 25.06 100.43 26.90
  Q 99.45 28.82 101.40 27.89
  Q 102.67 27.28 103.56 25.93
  Q 103.83 25.52 103.83 25.02
  C 103.78 21.78 105.12 8.98 109.99 9.76
  C 114.27 10.45 111.18 17.64 109.62 19.60
  Q 109.17 20.17 109.86 20.37
  Q 112.16 21.05 112.49 23.67
  Q 112.57 24.24 113.13 24.16
  L 113.97 24.04
  Q 114.53 23.96 114.75 23.45
  C 116.48 19.43 121.76 18.64 123.03 23.54
  Q 123.14 23.97 123.56 24.09
  C 124.38 24.34 125.26 23.85 125.59 23.08
  C 127.27 19.12 132.53 19.02 133.70 23.66
  Q 133.83 24.15 134.34 24.10
  L 135.47 23.99
  Q 136.02 23.93 136.04 23.38
  C 136.20 19.62 137.33 11.87 140.92 9.94
  A 2.08 2.07 -28.6 0 1 143.72 10.76
  C 146.20 15.19 140.42 20.68 138.39 24.06
  Q 138.30 24.21 138.45 24.30
  L 138.67 24.44
  Q 138.91 24.59 139.03 24.33
  C 140.01 22.38 142.47 19.05 144.94 20.60
  C 147.30 22.08 145.78 25.33 143.95 26.55
  Q 143.07 27.14 143.91 27.79
  Q 144.56 28.30 145.67 28.01
  A 1.16 1.14 -74.8 0 0 146.22 27.69
  L 148.11 25.81
  Q 148.55 25.37 148.98 25.81
  Q 149.42 26.25 149.23 26.82
  C 148.09 30.25 143.00 32.52 140.91 28.61
  Q 139.77 26.48 142.12 25.41
  A 1.80 1.69 -77.8 0 0 142.64 25.05
  Q 143.52 24.17 143.21 23.49
  A 0.82 0.82 0.0 0 0 141.81 23.34
  Q 139.56 26.27 138.93 29.58
  A 1.17 1.16 87.5 0 1 138.13 30.46
  Q 136.48 30.95 136.18 29.23
  Q 135.97 28.03 135.98 26.86
  Q 135.99 26.11 135.26 26.27
  L 134.06 26.53
  Q 133.52 26.64 133.39 27.19
  C 132.30 31.73 125.67 31.81 125.04 26.92
  Q 124.97 26.34 124.38 26.28
  Q 123.25 26.16 122.85 27.22
  C 121.24 31.58 115.23 32.04 114.49 26.95
  Q 114.43 26.52 114.00 26.43
  Q 113.50 26.32 112.99 26.48
  Q 112.43 26.65 112.26 27.22
  C 111.18 30.67 106.87 32.14 104.73 28.63
  Q 104.32 27.96 103.83 28.56
  Q 101.46 31.49 98.25 30.22
  A 2.25 2.25 0.0 0 0 95.17 32.23
  Q 95.02 35.92 93.50 38.98
  C 92.65 40.71 89.87 41.46 89.07 39.26
  C 88.18 36.78 89.24 33.21 90.29 30.96
  Q 90.58 30.36 89.94 30.54
  Q 88.30 30.99 87.44 29.49
  Q 87.09 28.87 86.58 29.38
  Q 83.96 32.01 81.67 29.29
  Q 81.33 28.89 80.96 29.26
  C 78.94 31.33 74.76 31.40 75.54 27.18
  Q 75.75 26.05 75.88 24.92
  Q 76.17 22.51 74.89 24.58
  Q 73.48 26.86 72.89 29.57
  A 1.32 1.32 0.0 0 1 70.37 29.78
  C 69.45 27.50 70.12 23.51 70.80 21.37
  A 1.60 1.60 0.0 0 1 72.31 20.25
  L 72.74 20.25
  Q 73.79 20.24 73.50 21.25
  Q 73.08 22.66 72.81 24.13
  Q 72.64 25.07 73.08 24.22
  Z
  M 106.93 21.01
  Q 109.72 17.35 109.96 12.71
  Q 109.99 12.12 109.41 12.08
  Q 108.86 12.03 108.67 12.55
  Q 107.13 16.64 106.85 21.11
  Q 106.84 21.22 106.88 21.12
  Q 106.90 21.06 106.93 21.01
  Z
  M 139.23 18.81
  Q 139.00 20.42 139.94 19.09
  Q 141.86 16.33 142.15 12.84
  A 0.65 0.65 0.0 0 0 141.39 12.14
  Q 140.94 12.22 140.78 12.67
  Q 139.65 15.77 139.23 18.81
  Z
  M 87.20 22.68
  A 0.38 0.37 -9.9 0 0 86.65 22.30
  Q 83.83 23.79 83.96 27.40
  Q 83.97 27.80 84.26 28.06
  Q 84.72 28.48 85.31 28.21
  Q 85.96 27.91 86.16 27.24
  Q 86.85 25.04 87.20 22.68
  Z
  M 98.30 23.21
  A 0.79 0.78 79.5 0 0 97.30 22.52
  C 95.01 23.19 95.36 26.23 95.57 28.03
  Q 95.63 28.60 96.10 28.27
  Q 98.60 26.52 98.30 23.21
  Z
  M 109.78 25.80
  C 108.86 24.67 108.87 24.23 108.59 22.85
  Q 108.43 22.07 107.86 22.63
  Q 105.97 24.52 106.96 27.34
  A 1.33 1.32 62.9 0 0 108.96 27.99
  Q 109.60 27.55 109.92 26.83
  Q 110.16 26.28 109.78 25.80
  Z
  M 120.32 25.81
  C 119.61 24.75 119.24 24.56 119.21 23.15
  Q 119.18 22.16 118.40 22.77
  Q 116.58 24.17 117.39 27.18
  A 1.40 1.39 65.9 0 0 119.50 27.99
  Q 120.17 27.56 120.45 26.73
  Q 120.61 26.24 120.32 25.81
  Z
  M 130.86 25.70
  C 130.27 24.77 130.12 24.79 129.87 23.61
  Q 129.43 21.54 128.39 23.39
  Q 127.22 25.49 128.10 27.33
  Q 128.84 28.87 130.42 27.80
  A 1.54 1.54 0.0 0 0 130.86 25.70
  Z
  M 92.10 30.95
  C 91.20 32.75 90.79 35.75 90.69 37.63
  A 0.53 0.53 0.0 0 0 91.11 38.17
  Q 91.69 38.30 91.80 37.85
  Q 92.56 34.79 92.66 31.09
  Q 92.69 29.77 92.10 30.95
  Z"
/>
<path fill="#000000" d="
  M 45.45 23.08
  Q 44.34 28.69 40.16 30.93
  Q 36.31 32.99 31.67 31.54
  Q 24.53 29.29 24.85 20.05
  C 27.95 7.15 46.17 9.72 45.45 23.08
  Z
  M 41.76 16.46
  A 1.22 1.22 0.0 0 0 40.54 15.24
  A 1.22 1.22 0.0 0 0 39.32 16.46
  A 1.22 1.22 0.0 0 0 40.54 17.68
  A 1.22 1.22 0.0 0 0 41.76 16.46
  Z
  M 40.61 21.85
  A 5.49 5.49 0.0 0 0 35.12 16.36
  A 5.49 5.49 0.0 0 0 29.63 21.85
  A 5.49 5.49 0.0 0 0 35.12 27.34
  A 5.49 5.49 0.0 0 0 40.61 21.85
  Z"
/>
<path fill="#ffffff" d="
  M 57.36 27.60
  C 59.04 28.43 62.82 28.80 64.06 26.81
  A 2.10 2.10 0.0 0 0 63.25 23.84
  C 60.91 22.61 57.70 21.92 56.11 19.72
  C 54.01 16.81 56.02 13.15 59.24 12.20
  C 63.26 11.02 69.91 12.08 68.02 17.90
  A 1.34 1.34 0.0 0 1 66.46 18.80
  L 66.14 18.74
  A 1.21 1.20 -75.7 0 1 65.24 17.22
  C 66.44 13.23 59.41 13.36 58.51 16.12
  C 57.06 20.61 67.86 19.60 67.50 25.46
  C 67.20 30.41 61.56 31.26 57.69 30.43
  Q 53.18 29.47 53.81 24.91
  A 1.34 1.32 -9.9 0 1 54.54 23.89
  Q 55.02 23.66 55.53 23.68
  Q 56.79 23.73 56.75 25.00
  L 56.70 26.50
  Q 56.68 27.27 57.36 27.60
  Z"
/>
<path fill="#000000" d="
  M 106.93 21.01
  Q 106.90 21.06 106.88 21.12
  Q 106.84 21.22 106.85 21.11
  Q 107.13 16.64 108.67 12.55
  Q 108.86 12.03 109.41 12.08
  Q 109.99 12.12 109.96 12.71
  Q 109.72 17.35 106.93 21.01
  Z"
/>
<path fill="#000000" d="
  M 139.23 18.81
  Q 139.65 15.77 140.78 12.67
  Q 140.94 12.22 141.39 12.14
  A 0.65 0.65 0.0 0 1 142.15 12.84
  Q 141.86 16.33 139.94 19.09
  Q 139.00 20.42 139.23 18.81
  Z"
/>
<circle fill="#7070f8" cx="40.54" cy="16.46" r="1.22"/>
<path fill="#7070f8" d="
  M 40.61 21.85
  A 5.49 5.49 0.0 0 1 35.12 27.34
  A 5.49 5.49 0.0 0 1 29.63 21.85
  A 5.49 5.49 0.0 0 1 35.12 16.36
  A 5.49 5.49 0.0 0 1 40.61 21.85
  Z
  M 38.87 21.90
  A 3.75 3.75 0.0 0 0 35.12 18.15
  A 3.75 3.75 0.0 0 0 31.37 21.90
  A 3.75 3.75 0.0 0 0 35.12 25.65
  A 3.75 3.75 0.0 0 0 38.87 21.90
  Z"
/>
<circle fill="#000000" cx="35.12" cy="21.90" r="3.75"/>
<path fill="#4439fe" d="
  M 23.31 19.27
  Q 23.89 20.36 24.85 20.05
  Q 24.53 29.29 31.67 31.54
  Q 36.31 32.99 40.16 30.93
  Q 44.34 28.69 45.45 23.08
  L 47.02 23.93
  A 12.08 12.08 0.0 0 1 34.73 33.90
  A 12.10 12.08 72.9 0 1 25.34 28.92
  A 12.09 12.08 -56.9 0 1 23.31 19.27
  Z"
/>
<path fill="#000000" d="
  M 87.20 22.68
  Q 86.85 25.04 86.16 27.24
  Q 85.96 27.91 85.31 28.21
  Q 84.72 28.48 84.26 28.06
  Q 83.97 27.80 83.96 27.40
  Q 83.83 23.79 86.65 22.30
  A 0.38 0.37 -9.9 0 1 87.20 22.68
  Z"
/>
<path fill="#000000" d="
  M 98.30 23.21
  Q 98.60 26.52 96.10 28.27
  Q 95.63 28.60 95.57 28.03
  C 95.36 26.23 95.01 23.19 97.30 22.52
  A 0.79 0.78 79.5 0 1 98.30 23.21
  Z"
/>
<path fill="#000000" d="
  M 108.59 22.85
  C 108.87 24.23 108.86 24.67 109.78 25.80
  Q 110.16 26.28 109.92 26.83
  Q 109.60 27.55 108.96 27.99
  A 1.33 1.32 62.9 0 1 106.96 27.34
  Q 105.97 24.52 107.86 22.63
  Q 108.43 22.07 108.59 22.85
  Z"
/>
<path fill="#000000" d="
  M 119.21 23.15
  C 119.24 24.56 119.61 24.75 120.32 25.81
  Q 120.61 26.24 120.45 26.73
  Q 120.17 27.56 119.50 27.99
  A 1.40 1.39 65.9 0 1 117.39 27.18
  Q 116.58 24.17 118.40 22.77
  Q 119.18 22.16 119.21 23.15
  Z"
/>
<path fill="#000000" d="
  M 129.87 23.61
  C 130.12 24.79 130.27 24.77 130.86 25.70
  A 1.54 1.54 0.0 0 1 130.42 27.80
  Q 128.84 28.87 128.10 27.33
  Q 127.22 25.49 128.39 23.39
  Q 129.43 21.54 129.87 23.61
  Z"
/>
<path fill="#000000" d="
  M 90.69 37.63
  C 90.79 35.75 91.20 32.75 92.10 30.95
  Q 92.69 29.77 92.66 31.09
  Q 92.56 34.79 91.80 37.85
  Q 91.69 38.30 91.11 38.17
  A 0.53 0.53 0.0 0 1 90.69 37.63
  Z"
/>
</svg>
